<svg width="0" height="0" class="hidden">
  <symbol fill="none" xmlns="http://www.w3.org/2000/svg" viewBox="0 0 15 15" id="checked">
    <g clip-path="url(#clip0_9:6)">
      <path d="M4.99997 8.60833L23.384 -10.5437L26.214 -7.59792L4.99997 14.5L-7.72803 1.24167L-4.90003 -1.70417L4.99997 8.60833Z" fill="#002233"></path>
    </g>
    <defs>
      <clipPath id="clip0_9:6">
        <rect width="15" height="15" rx="2" fill="white"></rect>
      </clipPath>
    </defs>
  </symbol>

  <symbol  xmlns="http://www.w3.org/2000/svg" viewBox="0 0 24 24" id="copy">
    <path fill="none" d="M0 0h24v24H0z"></path>
    <path d="M7 6V3a1 1 0 0 1 1-1h12a1 1 0 0 1 1 1v14a1 1 0 0 1-1 1h-3v3c0 .552-.45 1-1.007 1H4.007A1.001 1.001 0 0 1 3 21l.003-14c0-.552.45-1 1.007-1H7zM5.003 8L5 20h10V8H5.003zM9 6h8v10h2V4H9v2z" fill="white"></path>
  </symbol>

  <symbol xmlns="http://www.w3.org/2000/svg" viewBox="0 0 24 24" id="refresh">
    <path fill="none" d="M0 0h24v24H0z"></path>
    <path fill="white" d="M5.463 4.433A9.961 9.961 0 0 1 12 2c5.523 0 10 4.477 10 10 0 2.136-.67 4.116-1.81 5.74L17 12h3A8 8 0 0 0 6.46 6.228l-.997-1.795zm13.074 15.134A9.961 9.961 0 0 1 12 22C6.477 22 2 17.523 2 12c0-2.136.67-4.116 1.81-5.74L7 12H4a8 8 0 0 0 13.54 5.772l.997 1.795z"></path>
  </symbol>

  <symbol id="main-bg" xmlns="http://www.w3.org/2000/svg" xmlns:xlink="http://www.w3.org/1999/xlink" version="1.1" viewBox="0 0 800 600">
    <path d="M0 395L13.3 408.5C26.7 422 53.3 449 80 451.2C106.7 453.3 133.3 430.7 160 417C186.7 403.3 213.3 398.7 240 417C266.7 435.3 293.3 476.7 320 492.3C346.7 508 373.3 498 400 477.2C426.7 456.3 453.3 424.7 480 413C506.7 401.3 533.3 409.7 560 420.7C586.7 431.7 613.3 445.3 640 460.3C666.7 475.3 693.3 491.7 720 501.3C746.7 511 773.3 514 786.7 515.5L800 517L800 601L786.7 601C773.3 601 746.7 601 720 601C693.3 601 666.7 601 640 601C613.3 601 586.7 601 560 601C533.3 601 506.7 601 480 601C453.3 601 426.7 601 400 601C373.3 601 346.7 601 320 601C293.3 601 266.7 601 240 601C213.3 601 186.7 601 160 601C133.3 601 106.7 601 80 601C53.3 601 26.7 601 13.3 601L0 601Z" fill="#0066FF" stroke-linecap="round" stroke-linejoin="miter"></path>
  </symbol>

  <symbol fill="none" xmlns="http://www.w3.org/2000/svg" viewBox="0 0 24 24" id="check-line">
    <path d="M10 15.172L19.192 5.979L20.607 7.393L10 18L3.636 11.636L5.05 10.222L10 15.172Z" fill="white"></path>
  </symbol>
</svg>