<svg id="visual" viewBox="0 0 800 600" width="800" height="600" xmlns="http://www.w3.org/2000/svg" xmlns:xlink="http://www.w3.org/1999/xlink" version="1.1"><path d="M0 395L13.3 408.5C26.7 422 53.3 449 80 451.2C106.7 453.3 133.3 430.7 160 417C186.7 403.3 213.3 398.7 240 417C266.7 435.3 293.3 476.7 320 492.3C346.7 508 373.3 498 400 477.2C426.7 456.3 453.3 424.7 480 413C506.7 401.3 533.3 409.7 560 420.7C586.7 431.7 613.3 445.3 640 460.3C666.7 475.3 693.3 491.7 720 501.3C746.7 511 773.3 514 786.7 515.5L800 517L800 601L786.7 601C773.3 601 746.7 601 720 601C693.3 601 666.7 601 640 601C613.3 601 586.7 601 560 601C533.3 601 506.7 601 480 601C453.3 601 426.7 601 400 601C373.3 601 346.7 601 320 601C293.3 601 266.7 601 240 601C213.3 601 186.7 601 160 601C133.3 601 106.7 601 80 601C53.3 601 26.7 601 13.3 601L0 601Z" fill="#0066FF" stroke-linecap="round" stroke-linejoin="miter"></path></svg>